<svg xmlns="http://www.w3.org/2000/svg" width="20" height="20" viewBox="0 0 20 20">
    <g fill="none" fill-rule="evenodd">
        <g fill="#262626" fill-rule="nonzero">
            <g>
                <path d="M14.48 0H5.52C2.475 0 0 2.476 0 5.52v8.96C0 17.525 2.476 20 5.52 20h8.96c3.044 0 5.52-2.476 5.52-5.52V5.52C20 2.475 17.524 0 14.48 0zm3.746 14.48c0 2.066-1.68 3.746-3.745 3.746H5.519c-2.065 0-3.745-1.68-3.745-3.745V5.519c0-2.065 1.68-3.745 3.745-3.745h8.962c2.065 0 3.745 1.68 3.745 3.745v8.962z" transform="translate(-1011.000000, -5214.000000) translate(1011.000000, 5214.000000)"/>
                <path d="M10 4.847c-2.842 0-5.153 2.312-5.153 5.153 0 2.842 2.311 5.153 5.153 5.153 2.842 0 5.153-2.311 5.153-5.153 0-2.841-2.311-5.153-5.153-5.153zm0 8.532c-1.863 0-3.379-1.516-3.379-3.379S8.137 6.621 10 6.621s3.379 1.516 3.379 3.38c0 1.862-1.516 3.378-3.379 3.378zM15.37 3.342c-.342 0-.678.138-.92.381-.242.241-.382.577-.382.92 0 .342.14.678.382.92s.578.382.92.382c.343 0 .677-.14.92-.381.243-.243.38-.579.38-.92 0-.344-.137-.68-.38-.921-.241-.243-.577-.38-.92-.38z" transform="translate(-1011.000000, -5214.000000) translate(1011.000000, 5214.000000)"/>
            </g>
        </g>
    </g>
</svg>
