<svg xmlns="http://www.w3.org/2000/svg" width="371" height="56" viewBox="0 0 371 56">
    <g fill="none" fill-rule="evenodd">
        <g>
            <g>
                <g>
                    <path fill="#213367" fill-rule="nonzero" d="M241.68 46.827V36.5h11.527v10.327h5.912V22.73h-5.912v9.764H241.68v-9.764h-5.91v24.096h5.91zm33.99.33c2.404 0 4.536-.485 6.394-1.455 1.86-.971 3.288-2.35 4.286-4.138.998-1.787 1.498-3.867 1.498-6.239V34.25c0-2.36-.51-4.443-1.527-6.247-1.018-1.804-2.457-3.189-4.316-4.154-1.858-.965-3.983-1.448-6.374-1.448-2.39 0-4.516.483-6.374 1.448-1.86.965-3.298 2.35-4.316 4.154-1.018 1.804-1.527 3.892-1.527 6.264v1.191c.013 2.317.532 4.367 1.557 6.149 1.025 1.781 2.47 3.152 4.335 4.112 1.865.96 3.987 1.44 6.364 1.44zm0-4.07c-2.023 0-3.573-.679-4.65-2.036-1.077-1.357-1.616-3.266-1.616-5.726V34.15c.014-2.504.559-4.405 1.636-5.701 1.077-1.297 2.607-1.945 4.591-1.945 1.997 0 3.534.657 4.61 1.97 1.078 1.313 1.617 3.232 1.617 5.759v1.175c-.014 2.504-.552 4.41-1.616 5.718-1.064 1.307-2.588 1.96-4.572 1.96zm22.385 3.74V40.24l-.592-11.353 7.724 17.94h4.06l7.743-17.956-.59 11.37v6.586h5.93V22.73h-7.763l-7.33 17.476-7.37-17.476h-7.724v24.096h5.912zm48.67 0v-3.988h-13.32v-6.455h11.349v-3.889h-11.35v-5.743h13.28v-4.021h-19.191v24.096h19.231zm13.871.33c3.18 0 5.708-.592 7.586-1.778 1.879-1.186 2.818-2.822 2.818-4.907 0-1.876-.768-3.442-2.305-4.7-1.537-1.258-3.987-2.311-7.35-3.161-1.826-.463-3.209-.96-4.148-1.49-.94-.529-1.409-1.186-1.409-1.969 0-.838.4-1.514 1.202-2.027.802-.513 1.925-.77 3.37-.77 1.497 0 2.66.306 3.487.919.828.612 1.242 1.47 1.242 2.573H371c0-1.445-.443-2.736-1.33-3.872-.887-1.137-2.131-2.017-3.734-2.64-1.603-.623-3.429-.935-5.478-.935-2.036 0-3.872.287-5.507.86-1.636.574-2.89 1.371-3.764 2.392-.873 1.02-1.31 2.182-1.31 3.484 0 2.504 1.629 4.496 4.887 5.974 1.195.54 2.817 1.09 4.867 1.647 2.049.557 3.468 1.086 4.256 1.588.788.502 1.182 1.222 1.182 2.16 0 .86-.394 1.53-1.182 2.01-.788.48-1.885.72-3.29.72-3.784 0-5.676-1.329-5.676-3.988h-5.93c0 1.556.475 2.924 1.428 4.105.952 1.18 2.335 2.11 4.148 2.788 1.812.679 3.822 1.018 6.03 1.018z" transform="translate(-985.000000, -454.000000) translate(985.000000, 454.000000)"/>
                    <g>
                        <path fill="#223368" d="M159.084 42.152c-4.788 0-8.67-3.227-8.67-7.207s3.882-7.208 8.67-7.208 8.67 3.227 8.67 7.208c0 3.98-3.882 7.207-8.67 7.207m0-19.22c-7.98 0-14.449 5.378-14.449 12.013 0 6.634 6.469 12.013 14.449 12.013 7.98 0 14.45-5.379 14.45-12.013 0-6.635-6.47-12.013-14.45-12.013M182.146 26.013L176.366 21.208 176.366 28.003 176.366 46.957 182.146 46.957 182.146 32.808 195.459 43.876 195.459 37.081zM223.025 27.737L223.025 22.932 209.828 22.932 204.048 22.932 204.048 27.737 204.048 32.542 204.048 37.347 204.048 42.152 204.048 46.957 209.828 46.957 223.025 46.957 223.025 42.152 209.828 42.152 209.828 37.347 221.105 37.347 221.105 32.542 209.828 32.542 209.828 27.737z" transform="translate(-985.000000, -454.000000) translate(985.000000, 454.000000)"/>
                        <path fill="#EA2127" d="M195.46 22.932h-.001v.022c-.014 2.257-2.22 4.084-4.938 4.084v4.804c1.781 0 3.46-.363 4.938-1.002v13.037l5.78 4.805v-25.75h-5.779zM80.678 6.776l-11.626 6.595c25.163.605 42.268-6.073 42.268-6.073-18.24 7.379-37.495 8.042-45.58 7.946l-13.854 7.854s43.313-.894 70.881-23.014c0 0-17.04 10.5-42.089 6.692" transform="translate(-985.000000, -454.000000) translate(985.000000, 454.000000)"/>
                        <path fill="#223368" d="M132.783 22.954h-1.134s.515.635-.204 1.511l-9.602 10.86 1.156-10.336c.229-1.326 1.489-2.042 1.489-2.042h-4.098v.007h-10.337l-10.945 12.37 1.154-10.269c.004-.011.016-.022.018-.03.216-1.341 1.494-2.065 1.494-2.065h-1.276v-.004l-13.159-.002v.006c-.686-.028-33.658-1.298-38.596 6.012 2.03-3.391 3.404-5.867 3.492-5.972H28.3c.249.06 1.57.657 1.124 1.692v.003c-1.247 3.535-4.288 11.73-7.676 17.804C17.3 50.451 7.292 53.362.423 55.391c-.63.186-.53.575.127.576 16.903.087 30.778-1.036 41.278-16.158 2.434-3.507 4.823-7.343 6.697-10.47-.12.233-.218.47-.29.726-2.156 8.157 16.18 8.679 15.91 10.63-.243 1.718-11.167 1.19-18.374-.783-.038-.01-.068-.026-.095-.037-1.385-.38-1.97-1.056-1.97-1.056l.062.47-.007-.004s.011.03.016.07l.29 2.176c.29 2.295.67 5.526.67 5.526s38.194 4.014 38.899-6.307c.53-7.807-17.864-8.752-17.66-10.462.188-1.606 9.14-1.807 14.57-1.137.017.004.03.008.046.008 2.427.318 2.772 1.411 2.772 1.411l.397-.761h.006c.005-.036 3.284-6.267 3.57-6.81l-2.464 21.887v.003c-.217 1.343-1.493 2.068-1.493 2.068h2.575l11.841.006 10.96-12.385-1.162 10.327c-.225 1.332-1.487 2.052-1.487 2.052h1.258v.004l13.164-.007 21.233-23.998-8.98-.002z" transform="translate(-985.000000, -454.000000) translate(985.000000, 454.000000)"/>
                    </g>
                </g>
            </g>
        </g>
    </g>
</svg>
