<svg xmlns="http://www.w3.org/2000/svg" width="370" height="56" viewBox="0 0 370 56">
    <g fill="none" fill-rule="evenodd">
        <g>
            <g>
                <g>
                    <path fill="#fff" fill-rule="nonzero" d="M241.029 46.827V36.5h11.496v10.327h5.895V22.73h-5.895v9.764h-11.496v-9.764h-5.895v24.096h5.895zm33.898.33c2.398 0 4.523-.485 6.377-1.455 1.854-.971 3.279-2.35 4.274-4.138.996-1.787 1.494-3.867 1.494-6.239V34.25c0-2.36-.508-4.443-1.523-6.247-1.015-1.804-2.45-3.189-4.304-4.154-1.854-.965-3.973-1.448-6.357-1.448-2.384 0-4.503.483-6.357 1.448s-3.288 2.35-4.304 4.154c-1.015 1.804-1.523 3.892-1.523 6.264v1.191c.013 2.317.53 4.367 1.553 6.149 1.022 1.781 2.463 3.152 4.323 4.112 1.86.96 3.976 1.44 6.347 1.44zm0-4.07c-2.017 0-3.563-.679-4.637-2.036-1.075-1.357-1.612-3.266-1.612-5.726V34.15c.013-2.504.557-4.405 1.631-5.701 1.075-1.297 2.6-1.945 4.579-1.945 1.991 0 3.524.657 4.598 1.97 1.075 1.313 1.612 3.232 1.612 5.759v1.175c-.013 2.504-.55 4.41-1.612 5.718-1.06 1.307-2.58 1.96-4.559 1.96zm22.324 3.74V40.24l-.59-11.353 7.704 17.94h4.048l7.723-17.956-.59 11.37v6.586h5.915V22.73h-7.742l-7.31 17.476-7.35-17.476h-7.703v24.096h5.895zm48.539 0v-3.988h-13.285v-6.455h11.32v-3.889h-11.32v-5.743h13.245v-4.021h-19.14v24.096h19.18zm13.834.33c3.17 0 5.692-.592 7.566-1.778 1.873-1.186 2.81-2.822 2.81-4.907 0-1.876-.766-3.442-2.3-4.7-1.532-1.258-3.975-2.311-7.33-3.161-1.82-.463-3.199-.96-4.136-1.49-.936-.529-1.405-1.186-1.405-1.969 0-.838.4-1.514 1.199-2.027.8-.513 1.92-.77 3.36-.77 1.494 0 2.653.306 3.479.919.825.612 1.238 1.47 1.238 2.573H370c0-1.445-.442-2.736-1.326-3.872-.885-1.137-2.126-2.017-3.724-2.64-1.599-.623-3.42-.935-5.463-.935-2.031 0-3.862.287-5.493.86-1.631.574-2.882 1.371-3.753 2.392-.872 1.02-1.307 2.182-1.307 3.484 0 2.504 1.624 4.496 4.873 5.974 1.193.54 2.81 1.09 4.854 1.647 2.044.557 3.459 1.086 4.245 1.588s1.179 1.222 1.179 2.16c0 .86-.393 1.53-1.18 2.01-.785.48-1.88.72-3.28.72-3.774 0-5.66-1.329-5.66-3.988h-5.915c0 1.556.474 2.924 1.424 4.105.95 1.18 2.329 2.11 4.137 2.788 1.808.679 3.812 1.018 6.013 1.018z" transform="translate(-575.000000, -454.000000) translate(575.000000, 454.000000)"/>
                    <g>
                        <path fill="#fff" d="M158.655 42.152c-4.775 0-8.646-3.227-8.646-7.207s3.871-7.208 8.646-7.208 8.646 3.227 8.646 7.208c0 3.98-3.87 7.207-8.646 7.207m0-19.22c-7.958 0-14.41 5.378-14.41 12.013 0 6.634 6.452 12.013 14.41 12.013 7.959 0 14.41-5.379 14.41-12.013 0-6.635-6.451-12.013-14.41-12.013M181.655 26.013L175.891 21.208 175.891 28.003 175.891 46.957 181.655 46.957 181.655 32.808 194.932 43.876 194.932 37.081zM222.424 27.737L222.424 22.932 209.262 22.932 203.498 22.932 203.498 27.737 203.498 32.542 203.498 37.347 203.498 42.152 203.498 46.957 209.262 46.957 222.424 46.957 222.424 42.152 209.262 42.152 209.262 37.347 220.509 37.347 220.509 32.542 209.262 32.542 209.262 27.737z" transform="translate(-575.000000, -454.000000) translate(575.000000, 454.000000)"/>
                        <path fill="#fff" d="M194.933 22.932v.022c-.015 2.257-2.214 4.084-4.925 4.084v4.804c1.776 0 3.45-.363 4.924-1.002v13.037l5.764 4.805v-25.75h-5.763zM80.46 6.776l-11.595 6.595c25.096.605 42.155-6.073 42.155-6.073-18.191 7.379-37.394 8.042-45.457 7.946l-13.817 7.854s43.196-.894 70.69-23.014c0 0-16.995 10.5-41.975 6.692" transform="translate(-575.000000, -454.000000) translate(575.000000, 454.000000)"/>
                        <path fill="#fff" d="M132.425 22.954h-1.13s.513.635-.204 1.511l-9.577 10.86 1.153-10.336c.229-1.326 1.485-2.042 1.485-2.042h-4.087v.007h-10.309l-10.915 12.37 1.151-10.269c.004-.011.016-.022.018-.03.215-1.341 1.49-2.065 1.49-2.065h-1.273v-.004l-13.123-.002v.006c-.685-.028-33.568-1.298-38.493 6.012 2.025-3.391 3.395-5.867 3.483-5.972h-23.87c.248.06 1.566.657 1.12 1.692v.003c-1.243 3.535-4.276 11.73-7.655 17.804C17.254 50.451 7.273 53.362.422 55.391c-.629.186-.529.575.126.576 16.858.087 30.695-1.036 41.167-16.158 2.427-3.507 4.81-7.343 6.68-10.47-.12.233-.218.47-.29.726-2.15 8.157 16.136 8.679 15.867 10.63-.242 1.718-11.136 1.19-18.324-.783-.039-.01-.068-.026-.095-.037-1.381-.38-1.964-1.056-1.964-1.056l.06.47-.006-.004s.011.03.016.07l.289 2.176c.29 2.295.67 5.526.67 5.526s38.09 4.014 38.792-6.307c.53-7.807-17.815-8.752-17.612-10.462.188-1.606 9.116-1.807 14.532-1.137.015.004.03.008.045.008 2.42.318 2.764 1.411 2.764 1.411l.396-.761h.007c.004-.036 3.275-6.267 3.56-6.81l-2.458 21.887v.003c-.217 1.343-1.489 2.068-1.489 2.068h2.568l11.81.006 10.93-12.385-1.16 10.327c-.223 1.332-1.482 2.052-1.482 2.052h1.254v.004l13.129-.007 21.176-23.998-8.955-.002z" transform="translate(-575.000000, -454.000000) translate(575.000000, 454.000000)"/>
                    </g>
                </g>
            </g>
        </g>
    </g>
</svg>
