<svg xmlns="http://www.w3.org/2000/svg" width="15" height="15" viewBox="0 0 15 15">
    <g fill="none" fill-rule="evenodd">
        <g fill="#70737A">
            <g>
                <path d="M63.017 219.492c1.2 2.358 3.133 4.283 5.491 5.491l1.834-1.833c.225-.225.558-.3.85-.2.933.308 1.941.475 2.975.475.458 0 .833.375.833.833v2.909c0 .458-.375.833-.833.833C66.342 228 60 221.658 60 213.833c0-.458.375-.833.833-.833h2.917c.458 0 .833.375.833.833 0 1.042.167 2.042.475 2.975.092.292.025.617-.208.85l-1.833 1.834z" transform="translate(-1006.000000, -373.000000) translate(946.000000, 160.000000)"/>
            </g>
        </g>
    </g>
</svg>
