<svg xmlns="http://www.w3.org/2000/svg" width="19" height="15" viewBox="0 0 19 15">
    <g fill="none" fill-rule="evenodd">
        <g fill="#262626" fill-rule="nonzero">
            <g>
                <path d="M18.462 1.776c-.687.3-1.419.5-2.181.597.784-.468 1.383-1.204 1.665-2.091-.732.436-1.54.744-2.4.916C14.85.458 13.86 0 12.78 0 10.686 0 9 1.7 9 3.786c0 .3.025.588.088.863C5.94 4.495 3.156 2.987 1.285.69.96 1.257.767 1.905.767 2.603c0 1.31.675 2.473 1.681 3.145-.608-.011-1.204-.188-1.71-.466v.042c0 1.84 1.312 3.367 3.033 3.719-.308.084-.644.124-.993.124-.242 0-.486-.014-.716-.064.49 1.499 1.882 2.6 3.536 2.636-1.287 1.008-2.922 1.614-4.692 1.614-.31 0-.608-.013-.906-.051C1.677 14.382 3.663 15 5.806 15c6.965 0 10.772-5.77 10.772-10.77 0-.167-.005-.329-.013-.49.75-.532 1.382-1.198 1.897-1.964z" transform="translate(-1055.000000, -5217.000000) translate(1055.000000, 5217.000000)"/>
            </g>
        </g>
    </g>
</svg>
