<svg xmlns="http://www.w3.org/2000/svg" width="15" height="18" viewBox="0 0 15 18">
    <g fill="none" fill-rule="evenodd">
        <g fill="#000" fill-rule="nonzero">
            <g>
                <path d="M7.2 0C4.553 0 2.4 2.153 2.4 4.8s2.153 4.8 4.8 4.8S12 7.447 12 4.8 9.847 0 7.2 0zM12.575 12.776C11.392 11.502 9.825 10.8 8.16 10.8H6.24c-1.664 0-3.232.702-4.415 1.976C.648 14.045 0 15.72 0 17.491c0 .28.215.509.48.509h13.44c.265 0 .48-.228.48-.51 0-1.771-.648-3.445-1.825-4.714z" transform="translate(-380.000000, -25.000000) translate(380.000000, 25.000000)"/>
            </g>
        </g>
    </g>
</svg>
