<svg xmlns="http://www.w3.org/2000/svg" width="12" height="15" viewBox="0 0 12 15">
    <g fill="none" fill-rule="evenodd">
        <g fill="#70737A" fill-rule="nonzero">
            <g>
                <g>
                    <path d="M6 0C3.794 0 2 1.794 2 4s1.794 4 4 4 4-1.794 4-4-1.794-4-4-4zM10.48 10.647C9.492 9.585 8.186 9 6.8 9H5.2c-1.387 0-2.693.585-3.68 1.647C.54 11.704 0 13.099 0 14.575c0 .235.18.425.4.425h11.2c.22 0 .4-.19.4-.425 0-1.476-.54-2.871-1.52-3.928z" transform="translate(-1005.000000, -313.000000) translate(946.000000, 160.000000) translate(59.000000, 153.000000)"/>
                </g>
            </g>
        </g>
    </g>
</svg>
