<svg xmlns="http://www.w3.org/2000/svg" width="17" height="20" viewBox="0 0 17 20">
    <g fill="none" fill-rule="evenodd">
        <g fill="#262626" fill-rule="nonzero">
            <g>
                <path d="M16.59 10.125c-.206-.897-.94-1.56-1.824-1.658-2.093-.234-4.213-.235-6.322-.234-2.11-.001-4.229 0-6.322.234-.884.098-1.618.76-1.824 1.658C.004 11.404 0 12.8 0 14.116c0 1.317 0 2.712.294 3.991.207.898.94 1.56 1.825 1.659C4.212 20 6.33 20 8.44 20c2.11.001 4.228 0 6.322-.234.883-.099 1.618-.761 1.824-1.659.294-1.279.296-2.674.296-3.99 0-1.317.002-2.713-.292-3.992zm-11.774.991H3.594v6.493H2.459v-6.493h-1.2v-1.063h3.557v1.063zm3.082 6.494h-1.02v-.615c-.406.465-.791.692-1.166.692-.33 0-.556-.133-.658-.418-.055-.17-.09-.44-.09-.838V11.98h1.02v4.146c0 .239 0 .363.01.396.024.159.102.239.238.239.205 0 .419-.158.645-.478V11.98h1.021v5.63zm3.876-1.69c0 .52-.035.896-.103 1.134-.136.42-.409.633-.815.633-.363 0-.713-.202-1.054-.623v.546h-1.02v-7.557h1.02v2.468c.33-.406.679-.611 1.054-.611.406 0 .68.214.815.635.069.227.103.6.103 1.132v2.243zm3.85-.94h-2.04v.998c0 .522.17.782.522.782.25 0 .397-.137.455-.41.01-.055.023-.281.023-.69h1.041v.148c0 .33-.013.556-.022.658-.034.225-.114.43-.238.61-.283.41-.701.611-1.234.611-.534 0-.94-.192-1.235-.576-.216-.282-.328-.726-.328-1.324v-1.972c0-.602.099-1.043.316-1.327.294-.385.7-.577 1.222-.577.512 0 .918.192 1.203.577.214.284.316.725.316 1.327v1.165z" transform="translate(-1098.000000, -5214.000000) translate(1098.000000, 5214.000000)"/>
                <path d="M14.096 12.829c-.34 0-.511.26-.511.78v.522h1.02v-.521c0-.52-.171-.781-.509-.781zM10.31 12.829c-.168 0-.338.08-.509.248v3.432c.17.17.341.251.51.251.294 0 .443-.251.443-.76v-2.403c0-.508-.15-.768-.444-.768zM10.88 7.714c.376 0 .768-.229 1.178-.699v.62h1.031v-5.69h-1.031v4.35c-.228.322-.445.482-.651.482-.138 0-.22-.082-.242-.241-.013-.034-.013-.16-.013-.401v-4.19h-1.027v4.5c0 .402.034.674.09.846.105.288.333.423.665.423zM3.702 4.543v3.093h1.143V4.543L6.221 0H5.065l-.78 2.999L3.472 0H2.27c.24.708.491 1.42.733 2.128.366 1.064.595 1.867.699 2.415zM7.753 7.714c.517 0 .918-.195 1.203-.583.216-.284.32-.733.32-1.338V3.801c0-.609-.103-1.053-.32-1.34-.285-.39-.686-.584-1.203-.584-.514 0-.915.194-1.2.583-.22.288-.323.732-.323 1.34v1.993c0 .605.104 1.054.323 1.338.285.388.686.583 1.2.583zm-.492-4.12c0-.527.16-.79.492-.79.333 0 .492.263.492.79v2.393c0 .527-.16.79-.492.79-.332 0-.492-.263-.492-.79V3.594z" transform="translate(-1098.000000, -5214.000000) translate(1098.000000, 5214.000000)"/>
            </g>
        </g>
    </g>
</svg>
